<svg xmlns="http://www.w3.org/2000/svg" width="384" height="448" viewBox="0 0 384 448"><g id="facebook"><path d="M242.141 85.211c-9.854 0-15.938 1.491-18.281 4.563-2.399 3.071-3.498 9.399-3.498 18.918v24.608h62.298c2.614 0 5.321 1.308 8.121 3.924 1.854 1.824 2.795 4.562 2.795 8.091l-4.714 57.275c0 3.073-1.062 5.351-3.1 7.18-2.041 1.761-4.564 2.613-7.574 2.613h-57.821v219.187c0 3.012-1.127 5.596-3.226 7.692-2.158 2.159-4.746 3.195-7.756 3.195h-72.06c-3.01 0-5.628-1.035-7.725-3.195-2.099-2.099-3.132-4.684-3.132-7.692v-219.187h-35.012c-2.951 0-5.599-1.004-7.696-3.193-2.1-2.159-3.224-4.714-3.224-7.696v-56.728c0-2.982 1.125-5.658 3.224-7.999 2.098-2.344 4.745-3.469 7.696-3.469h35.009v-28.532c0-66.734 34.098-100.193 102.292-100.375 22.905 0 44.529 2.919 64.817 8.668 6.144 1.886 8.912 5.872 8.123 12.044l-7.516 55.602c-.761 3.011-2.219 5.413-4.5 7.3-2.921 1.885-5.899 2.403-8.638 1.642-6.542-1.458-13.324-2.615-20.353-3.346-6.93-.755-13.135-1.09-18.549-1.09"/></g></svg>