<svg xmlns="http://www.w3.org/2000/svg" width="384" height="448" viewBox="0 0 384 448"><g id="google"><path d="M187.228 55.321c11.709 6.984 20.418 16.834 26.102 29.393 5.735 12.638 8.548 25.489 8.548 38.472 0 15.27-2.681 27.428-8.045 36.481-5.39 9.027-11.312 16.728-17.839 23.047-6.507 6.346-12.401 12.106-17.659 17.178-5.335 5.181-7.964 11.55-7.964 19.167 0 7.329 3.584 13.995 10.752 20.021 7.167 6.028 15.026 12.691 23.684 20.021 8.629 7.302 16.489 16.062 23.603 26.229 7.222 10.145 10.807 23.287 10.807 39.376 0 16.62-4.09 30.905-12.188 42.854-8.176 11.948-18.425 21.797-30.879 29.576-12.452 7.728-26.286 13.381-41.524 17.02-15.188 3.691-29.976 5.523-44.313 5.523-10.7 0-22.197-1.221-34.491-3.771-12.293-2.549-23.737-6.639-34.198-12.346-10.461-5.684-19.117-12.983-25.995-21.958-6.824-8.97-10.249-20.124-10.249-33.452 0-16.222 4.621-29.816 13.831-40.464 9.16-10.753 20.523-19.328 34.011-25.754 13.542-6.479 28.065-10.995 43.704-13.676 15.638-2.706 29.762-4.196 42.48-4.54-3.743-4.674-7.143-9.902-10.169-15.587-3-5.706-4.488-11.894-4.488-18.557 0-3.746.505-7.064 1.594-10.011 1.062-2.946 2.203-6.187 3.53-9.771-2.629.664-5.31.955-8.205.955h-8.418c-11.045 0-21.612-1.885-31.7-5.683-10.118-3.823-18.826-9.266-26.338-16.224-7.514-7.006-13.542-15.292-18.081-24.797-4.566-9.505-6.825-20.099-6.825-31.861 0-11.047 1.993-21.454 6.08-31.197 4.09-9.825 9.505-18.666 16.382-26.737 6.825-8.072 14.79-14.895 23.896-20.523 9.106-5.628 18.876-9.639 29.285-12.028 14.337-3.001 28.621-4.435 42.96-4.435h100.308l-31.008 18.057h-30.981zm19.514 289.433c0-7.968-1.777-15.216-5.257-21.854-3.504-6.608-7.777-12.424-12.902-17.549-5.126-5.15-10.914-9.934-17.231-14.392-6.319-4.487-12.532-8.708-18.561-12.795-2.23-.346-4.673-.611-7.22-.744-2.497-.159-4.885-.264-7.168-.264-9.268 0-19.277 1.008-30.028 2.999-10.701 2.1-20.551 5.417-29.5 10.065-8.975 4.675-16.356 10.78-22.225 18.398-5.868 7.674-8.763 17.182-8.763 28.598 0 11.044 2.843 20.495 8.47 28.248 5.736 7.884 12.852 14.258 21.295 19.222 8.389 4.94 17.788 8.524 27.932 10.7 10.167 2.201 19.727 3.292 28.674 3.292 8.338 0 16.782-.929 25.488-2.786 8.708-1.834 16.595-4.964 23.55-9.294 7.036-4.299 12.666-9.877 16.992-16.698 4.278-6.827 6.454-15.215 6.454-25.146m-69.775-147.65c15.559 0 26.472-4.966 32.711-15.028 6.16-9.957 9.239-21.958 9.239-35.951 0-8.655-1.194-18.268-3.532-28.915-2.388-10.645-6.027-20.763-10.991-30.321-4.938-9.451-11.31-17.364-19.037-23.657-7.699-6.213-16.858-9.399-27.455-9.399-7.618 0-14.31 1.486-20.018 4.432-5.683 2.92-10.354 6.903-13.994 11.948-3.689 5.018-6.477 10.806-8.31 17.311-1.911 6.532-2.789 13.302-2.789 20.285 0 8.603 1.382 18.161 4.222 28.675 2.842 10.489 7.063 20.258 12.585 29.26 5.548 9.056 12.267 16.516 20.125 22.462 7.916 5.978 16.968 8.898 27.244 8.898m243.287-104.929h-52.491v-52.97h-26.073v52.97h-52.465v25.621h52.465v52.492h26.073v-52.492h52.491v-25.621z"/></g></svg>