<svg xmlns="http://www.w3.org/2000/svg" width="384" height="448" viewBox="0 0 384 448"><g id="instagram"><path d="M309.789 33.724h-232.349c-40.369 0-73.206 32.826-73.206 73.193v232.381c0 40.36 32.837 73.186 73.206 73.186h232.349c40.373 0 73.211-32.825 73.211-73.186v-232.381c0-40.367-32.838-73.193-73.211-73.193zm21.014 43.656l8.38-.031v64.201l-64.011.206-.224-64.202 55.855-.174zm-191.231 106.852c12.118-16.793 31.802-27.796 54.045-27.796 22.244 0 41.939 11.003 54.052 27.796 7.908 10.961 12.633 24.357 12.633 38.874 0 36.763-29.929 66.654-66.685 66.654-36.753 0-66.66-29.891-66.66-66.654.001-14.517 4.72-27.913 12.615-38.874zm206.523 155.066c0 20.018-16.263 36.28-36.306 36.28h-232.349c-20.033 0-36.296-16.263-36.296-36.28v-155.066h56.545c-4.899 12.012-7.635 25.128-7.635 38.874 0 57.104 46.454 103.583 103.562 103.583 57.109 0 103.564-46.479 103.564-103.583 0-13.746-2.761-26.862-7.637-38.874h56.55v155.066z"/></g></svg>