<svg xmlns="http://www.w3.org/2000/svg" width="384" height="448" viewBox="0 0 384 448"><g id="linkedin"><path d="M50.325 41.411c6.136 0 11.987 1.238 17.477 3.66 5.568 2.475 10.413 5.697 14.616 9.719 4.15 4.048 7.399 8.791 9.719 14.359 2.269 5.516 3.427 11.341 3.427 17.529 0 6.162-1.159 11.961-3.427 17.427-2.32 5.414-5.567 10.233-9.719 14.205-4.203 3.994-9.049 7.243-14.616 9.719-5.493 2.447-11.343 3.661-17.477 3.661-6.188 0-11.987-1.214-17.451-3.661-5.413-2.476-10.208-5.723-14.203-9.719-4.021-3.971-7.269-8.79-9.718-14.205-2.476-5.464-3.686-11.265-3.686-17.427 0-6.188 1.211-12.013 3.686-17.529 2.449-5.569 5.697-10.312 9.718-14.359 3.996-4.021 8.791-7.242 14.203-9.719 5.465-2.423 11.265-3.66 17.451-3.66m33.641 117.059c2.502 0 4.718.903 6.704 2.862 1.985 1.882 3.016 4.15 3.016 6.859v234.79c0 2.525-1.031 4.795-3.016 6.777-1.986 1.984-4.2 2.939-6.704 2.939h-66.61c-2.527 0-4.797-.953-6.78-2.939-1.934-1.98-2.939-4.252-2.939-6.777v-234.792c0-2.526 1.005-4.796 2.939-6.781 1.983-1.935 4.253-2.94 6.78-2.94l66.61.002zm195.943-5.954c30.005 0 53.978 7.553 72.025 22.632 18.019 15.134 27.014 38.282 27.014 69.551v158.28c0 2.524-1.081 4.796-2.964 6.777-1.982 1.984-4.307 2.939-6.754 2.939h-68.495c-2.528 0-4.689-.954-6.521-2.939-1.778-1.981-2.704-4.253-2.704-6.777v-143.096c0-11.988-2.167-21.191-6.522-27.507-4.357-6.291-13.148-9.485-26.397-9.485-8.405 0-15.416 1.415-21.112 4.174-5.671 2.786-10.157 6.473-13.406 11.112-3.221 4.689-5.464 10.23-6.7 16.728-1.313 6.474-1.933 13.432-1.933 20.883v127.192c0 2.524-.979 4.793-2.963 6.778-1.989 1.984-4.203 2.939-6.756 2.939h-66.559c-2.579 0-4.796-.953-6.781-2.939-2.011-1.982-2.939-4.254-2.939-6.778v-234.79c0-2.526.928-4.796 2.939-6.781 1.984-1.935 4.203-2.94 6.781-2.94h64.678c5.206 0 8.118 1.985 8.737 6.033.671 4.021.98 7.837.98 11.523 8.971-8.429 19.229-14.41 30.679-18.045 11.438-3.608 23.352-5.464 35.673-5.464"/></g></svg>