<svg xmlns="http://www.w3.org/2000/svg" width="384" height="448" viewBox="0 0 384 448"><g id="twitter"><path d="M380.982 119.558c-13.705 6.163-28.812 9.969-44.474 12.082 15.862-9.702 28.165-24.852 34.038-42.829-15.104 8.767-31.413 15.151-49.189 18.935-14.195-15.129-34.531-24.831-56.78-24.831-42.807 0-77.577 34.752-77.577 77.847 0 5.629.733 11.591 2.091 17.487-64.32-3.292-121.564-34.04-159.632-81.139-6.875 11.304-10.681 24.83-10.681 39.291 0 26.654 13.461 50.349 34.573 64.542-12.546-.467-24.828-4.204-35.286-9.723v.957c0 37.424 26.743 68.926 62.229 75.979-6.362 1.646-13.459 2.629-20.333 2.629-4.94 0-9.944-.56-14.639-1.226 9.699 30.548 38.778 53.238 72.351 53.684-26.478 21.024-59.827 33.13-96.227 33.13-6.408 0-12.569-.49-18.51-.713 34.307 21.736 75.267 34.796 118.806 34.796 142.834 0 220.729-118.516 220.729-220.969v-10.167c15.106-10.904 28.075-24.363 38.511-39.762"/></g></svg>